<svg id="ëÎÓÈ_1" data-name="ëÎÓÈ 1" xmlns="http://www.w3.org/2000/svg" viewBox="0 0 88.63 88.66"><defs><style>.cls-1{fill:#302d40;}</style></defs><title>features__arrows</title><polygon class="cls-1" points="76.41 85.31 73.09 88.63 88.63 88.63 88.63 73.09 85.31 76.41 85.31 85.31 76.41 85.31"/><polygon class="cls-1" points="76.32 12.22 73 15.54 88.54 15.54 88.54 0 85.22 3.32 85.22 12.22 76.32 12.22"/><polygon class="cls-1" points="58.07 30.47 54.75 33.79 70.29 33.79 70.29 18.25 66.97 21.57 66.97 30.47 58.07 30.47"/><polygon class="cls-1" points="39.82 48.72 36.5 52.04 52.04 52.04 52.04 36.5 48.72 39.82 48.72 48.72 39.82 48.72"/><polygon class="cls-1" points="21.57 66.97 18.25 70.29 33.79 70.29 33.79 54.75 30.47 58.07 30.47 66.97 21.57 66.97"/><polygon class="cls-1" points="3.32 85.22 0 88.54 15.54 88.54 15.54 73 12.22 76.32 12.22 85.22 3.32 85.22"/><polygon class="cls-1" points="67.22 39.62 63.9 42.94 79.44 42.94 79.44 27.4 76.12 30.72 76.12 39.62 67.22 39.62"/><polygon class="cls-1" points="48.96 57.87 45.65 61.19 61.19 61.19 61.19 45.65 57.87 48.97 57.87 57.87 48.96 57.87"/><polygon class="cls-1" points="30.71 76.12 27.4 79.44 42.94 79.44 42.94 63.9 39.62 67.22 39.62 76.12 30.71 76.12"/><polygon class="cls-1" points="76.36 48.77 73.05 52.09 88.59 52.09 88.59 36.54 85.27 39.86 85.27 48.77 76.36 48.77"/><polygon class="cls-1" points="58.11 67.02 54.8 70.34 70.33 70.34 70.33 54.79 67.02 58.11 67.02 67.02 58.11 67.02"/><polygon class="cls-1" points="39.86 85.27 36.55 88.58 52.09 88.59 52.09 73.05 48.77 76.36 48.77 85.27 39.86 85.27"/><polygon class="cls-1" points="67.26 76.17 63.94 79.48 79.48 79.48 79.48 63.94 76.17 67.26 76.17 76.17 67.26 76.17"/><polygon class="cls-1" points="85.47 21.37 82.15 24.69 88.63 24.69 88.63 21.37 85.47 21.37"/><polygon class="cls-1" points="82.19 61.23 88.63 61.23 88.63 57.91 85.51 57.91 82.19 61.23"/><polygon class="cls-1" points="24.69 82.15 21.37 85.47 21.37 88.61 24.69 88.61 24.69 82.15"/><polygon class="cls-1" points="61.23 82.19 57.91 85.51 57.91 88.66 61.23 88.66 61.23 82.19"/></svg>