<?xml version="1.0" encoding="utf-8"?>
<!-- Generator: Adobe Illustrator 22.1.0, SVG Export Plug-In . SVG Version: 6.00 Build 0)  -->
<svg version="1.1" id="Layer_1" xmlns="http://www.w3.org/2000/svg" xmlns:xlink="http://www.w3.org/1999/xlink" x="0px" y="0px"
	 viewBox="0 0 24 24" style="enable-background:new 0 0 24 24;" xml:space="preserve">
<path d="M16.3,12.5C17.9,11.2,19,9.2,19,7c0-3.9-3.1-7-7-7S5,3.1,5,7c0,2.2,1.1,4.2,2.7,5.5C3.2,13.9,0,18.1,0,23v1h2v-1
	c0-5,4-9,9-9h2c5,0,9,4,9,9v1h2v-1C24,18.1,20.8,13.9,16.3,12.5z M7,7c0-2.8,2.2-5,5-5s5,2.2,5,5s-2.2,5-5,5S7,9.8,7,7z"/>
</svg>
