<svg id="Layer_1" data-name="Layer 1" xmlns="http://www.w3.org/2000/svg" viewBox="0 0 388.03 240.01"><defs><style>.cls-1{fill:#fff;}</style></defs><title>Vector</title><path class="cls-1" d="M594,484.82l-40.36-40.37a63.23,63.23,0,0,1-100.53-15.33,129.35,129.35,0,0,1-28.91,56,120.39,120.39,0,0,0,169.8-.29Z" transform="translate(-205.99 -280)"/><path class="cls-1" d="M326,520a119.62,119.62,0,0,0,84.82-35.18q3.42-3.44,6.57-7.1c17.9-20.8,29-47.19,29-76.8h0c0-34.72,28.14-63.78,62.86-63.78a62.69,62.69,0,0,1,44.45,18.41L594,315.18A119.62,119.62,0,0,0,509.2,280c-66.17,0-120,54.75-120,120.92,0,17.36-7.38,32.15-18.75,43.53A62.69,62.69,0,0,1,326,462.86c-34.72,0-62.86-27.22-62.86-61.94s28.14-63.78,62.86-63.78V280c-66.17,0-120,54.75-120,120.92S259.82,520,326,520Z" transform="translate(-205.99 -280)"/></svg>