<svg xmlns="http://www.w3.org/2000/svg" viewBox="0 0 270 270"><defs><style>.cls-1{fill:#1d1d1b;}</style></defs><title>Asset 1</title><g id="Layer_2" data-name="Layer 2"><g id="Layer_1-2" data-name="Layer 1"><path class="cls-1" d="M187.5,158,176.58,147a17.12,17.12,0,0,1-27.21-4.15A34.89,34.89,0,0,1,141.55,158,32.58,32.58,0,0,0,187.5,158Z"/><path class="cls-1" d="M115,167.47A32.36,32.36,0,0,0,137.92,158c.62-.62,1.22-1.26,1.78-1.92a31.57,31.57,0,0,0,7.84-20.78h0a17.22,17.22,0,0,1,17-17.26,17,17,0,0,1,12,5l10.92-10.92a32.37,32.37,0,0,0-22.95-9.52,32.71,32.71,0,0,0-32.47,32.72A16.46,16.46,0,0,1,127,147a17,17,0,0,1-29-11.78A17.22,17.22,0,0,1,115,118V102.53A32.72,32.72,0,0,0,82.5,135.25,32.3,32.3,0,0,0,115,167.47Z"/><path d="M135,5a130,130,0,0,1,91.92,221.92A130,130,0,1,1,43.08,43.08,129.12,129.12,0,0,1,135,5m0-5A135,135,0,1,0,270,135,135,135,0,0,0,135,0Z"/></g></g></svg>